<svg xmlns="http://www.w3.org/2000/svg" width="25" height="25" fill="none" viewBox="0 0 25 25"><path fill="#fff" d="M10.458 11.825c1.16-.547 1.765-1.375 1.765-2.664C12.223 6.619 10.305 6 8.093 6H2v12.759h6.264c2.348 0 4.553-1.113 4.553-3.705 0-1.602-.77-2.786-2.359-3.229ZM4.84 8.178h2.665c1.025 0 1.947.284 1.947 1.458 0 1.084-.718 1.52-1.732 1.52H4.84V8.177Zm3.037 8.413H4.84v-3.513h3.095c1.25 0 2.042.515 2.042 1.822 0 1.288-.944 1.691-2.1 1.691Zm13.07-8.665h-5.239V6.67h5.24v1.256ZM23 14.273c0-2.732-1.619-5.011-4.554-5.011-2.85 0-4.787 2.117-4.787 4.889 0 2.876 1.834 4.849 4.787 4.849 2.235 0 3.683-.994 4.379-3.107h-2.268c-.244.788-1.25 1.206-2.03 1.206-1.506 0-2.297-.871-2.297-2.35h6.748a6.61 6.61 0 0 0 .022-.476Zm-6.767-1.123c.084-1.213.9-1.973 2.133-1.973 1.29 0 1.94.749 2.05 1.973h-4.183Z"/></svg>