<svg xmlns="http://www.w3.org/2000/svg" width="128" height="128" fill="none" viewBox="0 0 128 128"><path fill="#0C0C0C" d="M0 0h128v128H0z"/><path fill="#fff" d="M23.11 104.794a3.984 3.984 0 0 1-4.006-3.983c-.006-3.393-.01-6.663.039-9.936.01-.662.412-1.362.757-1.966 5.628-9.837 11.309-19.64 16.884-29.507 1.127-1.989 2.546-2.809 4.813-2.756 4.953.115 9.905-.043 14.857.067 2.454.053 4.008-.892 5.172-3.049a272.007 272.007 0 0 1 7.647-13.28c.628-1.015 1.97-2.223 3.015-2.252 5.945-.161 11.892-.13 17.928-.112a4.01 4.01 0 0 1 4 4.006V54.13a2.522 2.522 0 0 1-2.522 2.522c-8.869 0-17.733.086-26.597-.048-2.732-.043-4.41.867-5.767 3.27-8.13 14.381-16.4 28.681-24.56 43.044-.814 1.433-1.715 1.985-3.37 1.932-2.724-.085-5.453-.072-8.29-.055Z"/><path fill="#fff" d="M107.942 94.25a3.985 3.985 0 0 1-3.984 4.006c-3.392.006-6.663.01-9.936-.039-.661-.01-1.361-.412-1.965-.757-9.837-5.628-19.641-11.31-29.507-16.884-1.99-1.127-2.81-2.546-2.756-4.814.115-4.952-.044-9.904.067-14.856.052-2.454-.892-4.008-3.05-5.173a272.006 272.006 0 0 1-13.279-7.646c-1.016-.628-2.224-1.97-2.253-3.015-.16-5.945-.129-11.893-.112-17.928a4.01 4.01 0 0 1 4.007-4h12.103a2.522 2.522 0 0 1 2.521 2.522c0 8.869.087 17.732-.048 26.597-.043 2.732.868 4.41 3.27 5.767 14.382 8.13 28.682 16.4 43.045 24.559 1.433.815 1.984 1.716 1.932 3.37-.086 2.725-.072 5.454-.055 8.292Z"/></svg>