<svg xmlns="http://www.w3.org/2000/svg" width="23" height="23" fill="none" viewBox="0 0 23 23"><g clip-path="url(#a)"><path fill="#fff" d="M7.812 17.852c0 .09-.103.162-.234.162-.148.013-.251-.059-.251-.162 0-.09.103-.162.233-.162.135-.013.252.059.252.162Zm-1.397-.202c-.032.09.058.193.193.22.117.045.252 0 .279-.09.026-.09-.059-.193-.194-.233-.116-.032-.247.013-.278.103Zm1.985-.077c-.13.032-.22.117-.206.22.013.09.13.149.265.117.13-.031.22-.116.206-.206-.013-.086-.134-.144-.265-.13ZM11.356.36C5.126.36.36 5.09.36 11.32c0 4.982 3.136 9.245 7.615 10.746.575.103.777-.252.777-.544 0-.278-.014-1.815-.014-2.758 0 0-3.144.674-3.805-1.339 0 0-.512-1.307-1.248-1.644 0 0-1.03-.705.071-.692 0 0 1.119.09 1.734 1.16.984 1.733 2.633 1.235 3.275.938.104-.719.396-1.217.719-1.514-2.511-.278-5.045-.642-5.045-4.964 0-1.235.342-1.855 1.06-2.646-.116-.292-.498-1.495.117-3.05.94-.292 3.1 1.213 3.1 1.213a10.554 10.554 0 0 1 2.82-.382c.958 0 1.924.13 2.822.382 0 0 2.16-1.51 3.1-1.213.615 1.56.233 2.758.116 3.05.72.796 1.16 1.416 1.16 2.646 0 4.335-2.646 4.681-5.158 4.964.414.355.764 1.029.764 2.085 0 1.514-.013 3.387-.013 3.755 0 .292.206.647.777.544 4.492-1.492 7.538-5.755 7.538-10.737C22.64 5.09 17.587.36 11.356.36Zm-6.63 15.494c-.059.045-.045.148.031.234.072.071.175.103.234.044.058-.044.045-.148-.032-.233-.071-.072-.175-.104-.233-.045Zm-.485-.364c-.032.058.013.13.103.175.072.045.162.032.193-.031.032-.059-.013-.13-.103-.175-.09-.027-.162-.014-.193.031Zm1.455 1.6c-.072.058-.045.192.058.278.104.103.234.117.292.045.059-.059.032-.193-.058-.279-.099-.103-.234-.117-.292-.045Zm-.512-.661c-.072.045-.072.162 0 .265.072.103.193.148.252.103.071-.058.071-.175 0-.278-.063-.104-.18-.149-.252-.09Z"/></g><defs><clipPath id="a"><path fill="#fff" d="M0 0h23v23H0z"/></clipPath></defs></svg>