<svg xmlns="http://www.w3.org/2000/svg" width="25" height="25" fill="none" viewBox="0 0 25 25"><path fill="#fff" d="M7.253 20h-3.94V7.982h3.94V20ZM5.281 6.343C4.021 6.343 3 5.355 3 4.161c0-.573.24-1.123.668-1.528A2.347 2.347 0 0 1 5.281 2c.605 0 1.186.228 1.613.633.428.405.669.955.669 1.528 0 1.194-1.023 2.182-2.282 2.182ZM21.996 20h-3.93v-5.85c0-1.394-.03-3.182-2.049-3.182-2.048 0-2.362 1.514-2.362 3.081V20H9.72V7.982h3.778v1.64h.056c.525-.945 1.81-1.941 3.726-1.941 3.987 0 4.72 2.487 4.72 5.718V20h-.004Z"/></svg>