<svg xmlns="http://www.w3.org/2000/svg" width="64" height="58" fill="none" viewBox="0 0 64 58"><path fill="#fff" d="M4.006 57.95a3.985 3.985 0 0 1-4.005-3.983c-.003-1.997 0-3.944.029-5.892.007-.47.292-.966.537-1.395 3.995-6.982 8.027-13.94 11.985-20.944.8-1.412 1.807-1.994 3.416-1.956 3.515.081 7.03-.03 10.545.047 1.742.038 2.845-.633 3.672-2.164a193.018 193.018 0 0 1 5.427-9.425c.446-.722 1.399-1.58 2.14-1.6 3.838-.104 7.678-.094 11.565-.083 2.209.007 4 1.8 4 4.008v7.43a1.79 1.79 0 0 1-1.79 1.79c-6.295 0-12.587.061-18.879-.034-1.94-.03-3.13.616-4.093 2.32-5.771 10.209-11.64 20.36-17.432 30.554-.579 1.017-1.218 1.409-2.392 1.371-1.56-.049-3.122-.052-4.725-.045Z"/><path fill="#fff" d="M63.053 49.31a3.985 3.985 0 0 1-3.982 4.006c-1.997.002-3.944 0-5.892-.03-.47-.006-.966-.292-1.395-.537-6.982-3.995-13.94-8.027-20.944-11.984-1.412-.8-1.994-1.807-1.956-3.416.081-3.516-.03-7.03.047-10.546.038-1.742-.633-2.844-2.164-3.671a193.014 193.014 0 0 1-9.425-5.428c-.722-.445-1.58-1.398-1.6-2.14-.104-3.838-.094-7.677-.083-11.564.007-2.21 1.8-4 4.008-4h7.43c.989 0 1.79.801 1.79 1.79 0 6.295.061 12.587-.034 18.878-.03 1.94.616 3.13 2.32 4.094 10.209 5.77 20.36 11.64 30.554 17.432 1.017.578 1.409 1.218 1.371 2.392-.049 1.56-.052 3.122-.045 4.725Z"/></svg>