<svg xmlns="http://www.w3.org/2000/svg" width="131" height="139" fill="none" viewBox="0 0 131 139"><rect width="131" height="139" fill="#fff" rx="6"/><path fill="#000" d="M59.952 18.6H55.92v4.032h4.032V18.6Zm20.16 0H76.08v4.032h4.032V18.6ZM55.92 22.632h-4.032v4.032h4.032v-4.032Zm20.16 0h-4.032v4.032h4.032v-4.032Zm-24.192 4.032h-4.032v4.032h4.032v-4.032Zm12.096 0h-4.032v4.032h4.032v-4.032Zm12.096 0h-4.032v4.032h4.032v-4.032Zm4.032 0H76.08v4.032h4.032v-4.032Zm4.032 0h-4.032v4.032h4.032v-4.032ZM55.92 30.696h-4.032v4.032h4.032v-4.032Zm12.096 0h-4.032v4.032h4.032v-4.032Zm12.096 0H76.08v4.032h4.032v-4.032Zm4.032 0h-4.032v4.032h4.032v-4.032ZM55.92 34.728h-4.032v4.032h4.032v-4.032Zm12.096 0h-4.032v4.032h4.032v-4.032Zm8.064 0h-4.032v4.032h4.032v-4.032ZM59.952 38.76H55.92v4.032h4.032V38.76Zm4.032 0h-4.032v4.032h4.032V38.76Z"/><path fill="#000" d="M68.016 38.76h-4.032v4.032h4.032V38.76Zm8.064 0h-4.032v4.032h4.032V38.76Zm4.032 0H76.08v4.032h4.032V38.76Zm-28.224 4.032h-4.032v4.032h4.032v-4.032Zm8.064 0H55.92v4.032h4.032v-4.032Zm8.064 0h-4.032v4.032h4.032v-4.032Zm8.064 0h-4.032v4.032h4.032v-4.032Zm8.064 0h-4.032v4.032h4.032v-4.032Zm-32.256 4.032h-4.032v4.032h4.032v-4.032Zm12.096 0h-4.032v4.032h4.032v-4.032Zm8.064 0h-4.032v4.032h4.032v-4.032Zm12.096 0h-4.032v4.032h4.032v-4.032Zm-64.512 4.032H15.6v4.032h4.032v-4.032Zm4.032 0h-4.032v4.032h4.032v-4.032Zm4.032 0h-4.032v4.032h4.032v-4.032Zm8.064 0h-4.032v4.032h4.032v-4.032Zm4.032 0H35.76v4.032h4.032v-4.032Zm4.032 0h-4.032v4.032h4.032v-4.032Zm4.032 0h-4.032v4.032h4.032v-4.032Zm4.032 0h-4.032v4.032h4.032v-4.032Zm16.128 0h-4.032v4.032h4.032v-4.032Zm4.032 0h-4.032v4.032h4.032v-4.032Zm12.096 0h-4.032v4.032h4.032v-4.032Zm4.032 0h-4.032v4.032h4.032v-4.032Zm4.032 0h-4.032v4.032h4.032v-4.032Zm16.128 0h-4.032v4.032h4.032v-4.032Zm-88.704 4.032H15.6v4.032h4.032v-4.032Zm12.096 0h-4.032v4.032h4.032v-4.032Zm16.128 0h-4.032v4.032h4.032v-4.032Zm8.064 0h-4.032v4.032h4.032v-4.032Zm8.064 0h-4.032v4.032h4.032v-4.032Zm4.032 0h-4.032v4.032h4.032v-4.032Zm4.032 0h-4.032v4.032h4.032v-4.032Zm4.032 0h-4.032v4.032h4.032v-4.032Zm4.032 0H76.08v4.032h4.032v-4.032Zm4.032 0h-4.032v4.032h4.032v-4.032Zm8.064 0h-4.032v4.032h4.032v-4.032Zm8.064 0H96.24v4.032h4.032v-4.032Zm12.096 0h-4.032v4.032h4.032v-4.032ZM27.696 58.92h-4.032v4.032h4.032V58.92Zm4.032 0h-4.032v4.032h4.032V58.92Z"/><path fill="#000" d="M35.76 58.92h-4.032v4.032h4.032V58.92Zm4.032 0H35.76v4.032h4.032V58.92Zm4.032 0h-4.032v4.032h4.032V58.92Zm16.128 0H55.92v4.032h4.032V58.92Zm4.032 0h-4.032v4.032h4.032V58.92Zm4.032 0h-4.032v4.032h4.032V58.92Zm16.128 0h-4.032v4.032h4.032V58.92Zm4.032 0h-4.032v4.032h4.032V58.92Zm4.032 0h-4.032v4.032h4.032V58.92Zm12.096 0h-4.032v4.032h4.032V58.92Zm-84.672 4.032H15.6v4.032h4.032v-4.032Zm12.096 0h-4.032v4.032h4.032v-4.032Zm24.192 0h-4.032v4.032h4.032v-4.032Zm4.032 0H55.92v4.032h4.032v-4.032Zm8.064 0h-4.032v4.032h4.032v-4.032Zm4.032 0h-4.032v4.032h4.032v-4.032Zm12.096 0h-4.032v4.032h4.032v-4.032Zm8.064 0h-4.032v4.032h4.032v-4.032Zm4.032 0h-4.032v4.032h4.032v-4.032Zm16.128 0h-4.032v4.032h4.032v-4.032Zm4.032 0h-4.032v4.032h4.032v-4.032Zm-80.64 4.032h-4.032v4.032h4.032v-4.032Zm8.064 0h-4.032v4.032h4.032v-4.032Zm8.064 0h-4.032v4.032h4.032v-4.032Zm8.064 0H55.92v4.032h4.032v-4.032Zm4.032 0h-4.032v4.032h4.032v-4.032Zm20.16 0h-4.032v4.032h4.032v-4.032Zm8.064 0h-4.032v4.032h4.032v-4.032Zm4.032 0h-4.032v4.032h4.032v-4.032Zm12.096 0h-4.032v4.032h4.032v-4.032Zm4.032 0h-4.032v4.032h4.032v-4.032Zm4.032 0h-4.032v4.032h4.032v-4.032Zm-92.736 4.032h-4.032v4.032h4.032v-4.032Zm12.096 0h-4.032v4.032h4.032v-4.032Zm4.032 0H35.76v4.032h4.032v-4.032Zm8.064 0h-4.032v4.032h4.032v-4.032Zm12.096 0H55.92v4.032h4.032v-4.032Zm4.032 0h-4.032v4.032h4.032v-4.032Zm8.064 0h-4.032v4.032h4.032v-4.032Zm4.032 0h-4.032v4.032h4.032v-4.032Zm8.064 0h-4.032v4.032h4.032v-4.032Zm16.128 0H96.24v4.032h4.032v-4.032Zm12.096 0h-4.032v4.032h4.032v-4.032Zm4.032 0h-4.032v4.032h4.032v-4.032Zm-96.768 4.032H15.6v4.032h4.032v-4.032Zm12.096 0h-4.032v4.032h4.032v-4.032Zm4.032 0h-4.032v4.032h4.032v-4.032Zm4.032 0H35.76v4.032h4.032v-4.032Zm4.032 0h-4.032v4.032h4.032v-4.032Zm4.032 0h-4.032v4.032h4.032v-4.032Zm4.032 0h-4.032v4.032h4.032v-4.032Zm4.032 0h-4.032v4.032h4.032v-4.032Zm4.032 0H55.92v4.032h4.032v-4.032Zm20.16 0H76.08v4.032h4.032v-4.032Zm4.032 0h-4.032v4.032h4.032v-4.032Zm4.032 0h-4.032v4.032h4.032v-4.032Zm4.032 0h-4.032v4.032h4.032v-4.032Zm12.096 0h-4.032v4.032h4.032v-4.032Zm8.064 0h-4.032v4.032h4.032v-4.032Zm4.032 0h-4.032v4.032h4.032v-4.032ZM23.664 79.08h-4.032v4.032h4.032V79.08Zm8.064 0h-4.032v4.032h4.032V79.08Zm16.128 0h-4.032v4.032h4.032V79.08Z"/><path fill="#000" d="M51.888 79.08h-4.032v4.032h4.032V79.08Zm4.032 0h-4.032v4.032h4.032V79.08Zm4.032 0H55.92v4.032h4.032V79.08Zm4.032 0h-4.032v4.032h4.032V79.08Zm28.224 0h-4.032v4.032h4.032V79.08Zm4.032 0h-4.032v4.032h4.032V79.08Zm-76.608 4.032H15.6v4.032h4.032v-4.032Zm8.064 0h-4.032v4.032h4.032v-4.032Zm8.064 0h-4.032v4.032h4.032v-4.032Zm8.064 0h-4.032v4.032h4.032v-4.032Zm12.096 0h-4.032v4.032h4.032v-4.032Zm12.096 0h-4.032v4.032h4.032v-4.032Zm4.032 0h-4.032v4.032h4.032v-4.032Zm4.032 0h-4.032v4.032h4.032v-4.032Zm8.064 0h-4.032v4.032h4.032v-4.032Zm4.032 0h-4.032v4.032h4.032v-4.032Zm4.032 0h-4.032v4.032h4.032v-4.032Zm4.032 0h-4.032v4.032h4.032v-4.032Zm4.032 0H96.24v4.032h4.032v-4.032Zm8.064 0h-4.032v4.032h4.032v-4.032Zm8.064 0h-4.032v4.032h4.032v-4.032Zm-64.512 4.032h-4.032v4.032h4.032v-4.032Zm4.032 0h-4.032v4.032h4.032v-4.032Zm4.032 0H55.92v4.032h4.032v-4.032Zm4.032 0h-4.032v4.032h4.032v-4.032Zm4.032 0h-4.032v4.032h4.032v-4.032Zm4.032 0h-4.032v4.032h4.032v-4.032Zm4.032 0h-4.032v4.032h4.032v-4.032Zm8.064 0h-4.032v4.032h4.032v-4.032Zm16.128 0H96.24v4.032h4.032v-4.032Zm12.096 0h-4.032v4.032h4.032v-4.032Zm-60.48 4.032h-4.032v4.032h4.032v-4.032Zm12.096 0h-4.032v4.032h4.032v-4.032Zm4.032 0h-4.032v4.032h4.032v-4.032Zm12.096 0H76.08v4.032h4.032v-4.032Zm4.032 0h-4.032v4.032h4.032v-4.032Zm8.064 0h-4.032v4.032h4.032v-4.032Zm8.064 0H96.24v4.032h4.032v-4.032Zm4.032 0h-4.032v4.032h4.032v-4.032Zm8.064 0h-4.032v4.032h4.032v-4.032Zm4.032 0h-4.032v4.032h4.032v-4.032Zm-64.512 4.032h-4.032v4.032h4.032v-4.032Zm16.128 0h-4.032v4.032h4.032v-4.032Zm16.128 0h-4.032v4.032h4.032v-4.032Zm16.128 0H96.24v4.032h4.032v-4.032Zm4.032 0h-4.032v4.032h4.032v-4.032Zm8.064 0h-4.032v4.032h4.032v-4.032Zm4.032 0h-4.032v4.032h4.032v-4.032ZM51.888 99.24h-4.032v4.032h4.032V99.24Zm4.032 0h-4.032v4.032h4.032V99.24Zm8.064 0h-4.032v4.032h4.032V99.24Zm4.032 0h-4.032v4.032h4.032V99.24Zm4.032 0h-4.032v4.032h4.032V99.24Zm4.032 0h-4.032v4.032h4.032V99.24Zm4.032 0H76.08v4.032h4.032V99.24Zm4.032 0h-4.032v4.032h4.032V99.24Zm4.032 0h-4.032v4.032h4.032V99.24Zm4.032 0h-4.032v4.032h4.032V99.24Zm4.032 0h-4.032v4.032h4.032V99.24Zm4.032 0H96.24v4.032h4.032V99.24Zm8.064 0h-4.032v4.032h4.032V99.24Zm-48.384 4.032H55.92v4.032h4.032v-4.032Zm4.032 0h-4.032v4.032h4.032v-4.032Zm8.064 0h-4.032v4.032h4.032v-4.032Zm8.064 0H76.08v4.032h4.032v-4.032Zm4.032 0h-4.032v4.032h4.032v-4.032Zm4.032 0h-4.032v4.032h4.032v-4.032Zm8.064 0h-4.032v4.032h4.032v-4.032Zm4.032 0H96.24v4.032h4.032v-4.032Zm-48.384 4.032h-4.032v4.032h4.032v-4.032Zm4.032 0h-4.032v4.032h4.032v-4.032Zm4.032 0H55.92v4.032h4.032v-4.032Zm8.064 0h-4.032v4.032h4.032v-4.032Zm12.096 0H76.08v4.032h4.032v-4.032Zm4.032 0h-4.032v4.032h4.032v-4.032Zm20.16 0h-4.032v4.032h4.032v-4.032Zm12.096 0h-4.032v4.032h4.032v-4.032Zm-64.512 4.032h-4.032v4.032h4.032v-4.032Zm12.096 0h-4.032v4.032h4.032v-4.032Zm8.064 0h-4.032v4.032h4.032v-4.032Zm12.096 0h-4.032v4.032h4.032v-4.032Zm16.128 0H96.24v4.032h4.032v-4.032Zm4.032 0h-4.032v4.032h4.032v-4.032Zm12.096 0h-4.032v4.032h4.032v-4.032Zm-64.512 4.032h-4.032v4.032h4.032v-4.032Zm4.032 0h-4.032v4.032h4.032v-4.032Zm4.032 0H55.92v4.032h4.032v-4.032Zm16.128 0h-4.032v4.032h4.032v-4.032Zm8.064 0h-4.032v4.032h4.032v-4.032Zm16.128 0H96.24v4.032h4.032v-4.032Zm4.032 0h-4.032v4.032h4.032v-4.032Zm8.064 0h-4.032v4.032h4.032v-4.032Zm4.032 0h-4.032v4.032h4.032v-4.032Z"/><g clip-path="url(#a)"><path fill="#000" d="M16.455 18.596a.862.862 0 0 0-.859.859v26.514a.86.86 0 0 0 .859.86h26.514a.86.86 0 0 0 .86-.86V19.455a.86.86 0 0 0-.86-.859H16.455Zm23.337 8.068V42.3a.491.491 0 0 1-.492.492H20.124a.491.491 0 0 1-.492-.492V23.124c0-.274.222-.492.492-.492H39.3c.275 0 .492.222.492.492v3.54Z"/></g><path fill="#000" d="M35.76 34.728V27.52a.86.86 0 0 0-.859-.859H24.52a.86.86 0 0 0-.859.859v10.386a.86.86 0 0 0 .859.86h10.382a.86.86 0 0 0 .86-.86v-3.177Z"/><g clip-path="url(#b)"><path fill="#000" d="M89.03 18.596a.862.862 0 0 0-.858.859v26.514a.86.86 0 0 0 .859.86h26.514a.86.86 0 0 0 .859-.86V19.455a.86.86 0 0 0-.859-.859H89.031Zm23.338 8.068V42.3a.491.491 0 0 1-.492.492H92.7a.491.491 0 0 1-.492-.492V23.124c0-.274.222-.492.492-.492h19.176c.274 0 .492.222.492.492v3.54Z"/></g><path fill="#000" d="M108.336 34.728V27.52a.86.86 0 0 0-.859-.859H97.095a.86.86 0 0 0-.859.859v10.386a.86.86 0 0 0 .859.86h10.382a.86.86 0 0 0 .859-.86v-3.177Z"/><g clip-path="url(#c)"><path fill="#000" d="M16.455 91.172a.862.862 0 0 0-.859.859v26.514a.86.86 0 0 0 .859.859h26.514a.86.86 0 0 0 .86-.859V92.031a.86.86 0 0 0-.86-.86H16.455Zm23.337 8.068v15.636a.491.491 0 0 1-.492.492H20.124a.491.491 0 0 1-.492-.492V95.7c0-.274.222-.492.492-.492H39.3c.275 0 .492.222.492.492v3.54Z"/></g><path fill="#000" d="M35.76 107.304v-7.209a.86.86 0 0 0-.859-.86H24.52a.86.86 0 0 0-.859.86v10.386a.86.86 0 0 0 .859.859h10.382a.86.86 0 0 0 .86-.859v-3.177Z"/><defs><clipPath id="a"><path fill="#fff" d="M15.6 18.6h28.224v28.224H15.6z"/></clipPath><clipPath id="b"><path fill="#fff" d="M88.176 18.6H116.4v28.224H88.176z"/></clipPath><clipPath id="c"><path fill="#fff" d="M15.6 91.176h28.224V119.4H15.6z"/></clipPath></defs></svg>